<?xml version="1.0" encoding="UTF-8"?>
<svg version="1.1" viewBox="0 0 900 900" width="1280" height="1280" xmlns="http://www.w3.org/2000/svg">
<path transform="translate(0)" d="m0 0h900v900h-900z" fill="#fff"/>
<path transform="translate(437,70)" d="m0 0h22l26 3 21 5 19 7 19 10 17 12 11 10 8 7 7 8 12 15 11 18 9 17 4 8 1 3 4 2 6 1 28-8 16-3 14-1h20l17 2 19 5 14 6 14 9 10 8 11 11 12 16 10 18 9 21 5 15 2 12 2 31v10l-3 32-5 20-8 20-6 11-9 13-11 13-10 9-15 11-18 10-21 8-22 6-16 4-4 4-1 23-1 79h-476l-1-92-2-8-4-4-6-2-19-3-27-9-21-11-14-10-13-12-9-10-10-15-8-16-5-13-5-19-3-19-1-17v-16l3-24 6-25 6-18 8-18 10-16 9-11 11-11 14-10 16-8 16-5 15-3 8-1h26l23 3 21 5 14 3 6-4 4-6 8-18 12-20 11-14 9-10 13-13 19-14 20-11 21-8 22-5z" fill="#fff"/>
<path transform="translate(210,683)" d="m0 0h475v113l-3 13-5 10-5 6-9 3-12 2-54 1h-30l-324-2-8-4-12-11-8-11-4-11-1-5z" fill="#fff"/>
<path transform="translate(439,41)" d="m0 0h18l26 2 23 5 24 8 23 11 14 9 12 9 13 11 14 14 9 11 13 18 13 23 2 1 25-5 26-3h13l25 3 17 4 16 6 16 8 14 9 13 11 8 8 11 14 9 14 12 23 8 21 4 13 4 27v51l-5 28-4 14-8 21-9 17-14 19-11 12-7 7-16 12-13 8-17 9-21 8-23 7-1 101-4 6-5 3-5 1h-504l-7-3-5-4-2-9-1-93-26-7-20-8-19-10-17-12-12-11-10-10-14-19-9-16-7-16-6-20-4-20-3-23v-29l4-27 6-25 7-21 7-16 12-20 8-11 12-13 8-8 14-10 10-6 19-8 22-6 23-3h22l33 4 17 3 1-5 9-16 10-15 11-14 11-12 10-10 11-9 16-11 18-10 22-9 23-6 16-3zm-2 29-29 4-19 5-20 8-18 10-12 9-10 8-8 7-7 8-13 16-13 21-8 17-4 8-5 4-4 1-28-7-18-3-10-1h-26l-19 3-17 5-12 5-13 8-11 9-11 11-12 17-8 15-8 21-7 27-3 18-1 11v16l2 25 4 20 7 21 8 16 9 14 9 11 10 10 13 10 15 9 15 7 24 8 19 3 9 4 2 4 1 6 1 92h476l1-79 1-23 4-4 16-4 25-7 20-8 16-9 16-12 10-9 11-13 11-17 9-20 7-26 3-32-1-29-2-19-4-15-10-24-9-17-12-16-9-10-7-7-16-11-16-8-17-5-11-2-11-1h-20l-20 2-25 6-13 4-7-2-3-1-2-4-9-19-10-17-9-12-9-11-11-12-11-9-10-8-18-11-17-8-19-6-14-3-26-3z" fill="#010101"/>
<path transform="translate(193,654)" d="m0 0h510l5 3 4 5 1 5v124l-2 17-4 13-7 13-8 10-9 6-12 5-11 2-32 1-137 1-164-1-91-1-12-6-16-12-8-8-10-15-6-15-2-11v-126l3-6 4-3zm17 29v104l3 11 4 8 7 9 7 7 9 6 3 1 213 1 111 1h30l54-1 17-3 6-4 7-11 3-10 1-6v-113z" fill="#010101"/>
</svg>
